<svg enable-background="new 0 0 512 512" height="512" viewBox="0 0 512 512" width="512" xmlns="http://www.w3.org/2000/svg" fill="#0f3693"><g id="_x36_52_x2C__Gender_Respect_x2C__Human_Protection_x2C__Social"><g><path d="m467.441 346.923c-5.55-3.625-11.326-5.51-17.168-5.602-9.829-.151-17.596.459-23.084 1.828l-84.626 9.04c2.202-4.953 3.437-10.43 3.437-16.192 0-22.056-17.944-40-40-40h-67.639l-37.889-18.944c-1.389-.694-2.92-1.056-4.472-1.056h-70.51c-2.866-17.003-17.685-29.999-35.49-29.999h-28c-19.851 0-36 16.149-36 35.999v158c0 19.851 16.149 36 36 36h28c16.17 0 29.881-10.717 34.411-25.42l69.513 30.332c10.477 5.168 22.769 6.601 34.687 3.378 54.234-14.665 220.562-66.19 230.031-68.495 12.344-2.408 20.982-9.588 24.987-20.771 6.312-17.621-.495-37.849-16.188-48.098zm-377.441 109.075h-28c-8.822 0-16-7.178-16-16v-158c0-8.822 7.178-16 16-16h28c8.822 0 16 7.178 16 16v158c0 8.822-7.178 16-16 16zm374.801-67.719c-1.192 3.328-3.236 6.588-10.061 7.898-6.802 1.304-176.359 53.935-231.351 68.804-6.948 1.881-14.324 1.142-20.766-2.081-.435-.219 3.606 1.564-76.623-33.449v-133.453h67.639l37.889 18.944c1.389.694 2.92 1.056 4.472 1.056h70c11.028 0 20 8.972 20 20 0 10.213-7.698 18.648-17.595 19.841l-.662.071c-1.986.172 2.681.048-71.743.088-5.523 0-10 4.478-10 10 0 5.523 4.477 10 10 10 69.68-.045 70.987.11 73.261-.137 36.382-3.887 96.317-10.287 120.797-12.904.541-.058 1.077-.16 1.602-.305 3.529-.977 10.198-1.462 18.299-1.333 2.007.031 4.21.821 6.547 2.348 8.034 5.248 11.523 15.599 8.295 24.612z"/><circle cx="76" cy="425.998" r="10"/><path d="m313.574 406.297-79.999 20c-5.358 1.339-8.616 6.768-7.276 12.127 1.348 5.389 6.806 8.609 12.127 7.275l80-20c5.357-1.339 8.615-6.768 7.275-12.127-1.339-5.358-6.769-8.62-12.127-7.275z"/><path d="m356 285.998c38.195 0 72.593-16.559 96.398-42.872.535-.488 1.021-1.029 1.44-1.623 20.014-22.873 32.162-52.795 32.162-85.504 0-71.682-58.317-130-130-130-32.483 0-62.222 11.976-85.033 31.744-.637.448-1.221.961-1.733 1.538-26.522 23.816-43.234 58.35-43.234 96.718 0 71.682 58.317 129.999 130 129.999zm110-129.999c0 26.237-9.239 50.354-24.627 69.281-7.12-.892-21.212-3.402-35.259-10.194-25.187-12.178-38.688-32.234-40.128-59.613-2.01-38.191-13.563-66.142-34.337-83.077-8.849-7.213-18.199-11.41-26.692-13.813 15.264-8.031 32.631-12.585 51.043-12.585 60.654.001 110 49.346 110 110.001zm-184.983-80.403c6.617-.252 23.615.448 38.221 12.487 16.075 13.25 25.084 36.277 26.776 68.441 1.841 34.964 19.831 61.546 52.028 76.872 9.178 4.369 18.238 7.194 25.936 9.024-18.725 14.76-42.341 23.578-67.978 23.578-60.654 0-110-49.345-110-109.999 0-31.703 13.486-60.311 35.017-80.403z"/><path d="m326 165.999c0-16.542-13.458-30-30-30s-30 13.458-30 30 13.458 30 30 30 30-13.459 30-30zm-40 0c0-5.514 4.486-10 10-10s10 4.486 10 10-4.486 10-10 10-10-4.486-10-10z"/><path d="m416 185.999c16.542 0 30-13.458 30-30s-13.458-30-30-30-30 13.458-30 30 13.458 30 30 30zm0-40c5.514 0 10 4.486 10 10s-4.486 10-10 10-10-4.486-10-10c0-5.515 4.486-10 10-10z"/></g></g></svg>