<svg id="outline" height="512" viewBox="0 0 64 64" width="512" xmlns="http://www.w3.org/2000/svg" fill="#0f3693"><g><path d="m38.684 29.051c-3.642 1.214-3.684 3.671-3.684 3.775 0 .537.425.956.961.978h.039c.52 0 .957-.419.999-.941.004-.048.12-1.182 2.317-1.914.524-.175.807-.741.632-1.265-.174-.524-.739-.809-1.264-.633z"/><path d="m59 15h-13.784s-.001-.001-.001-.001c-.358-.616-1.022-.999-1.733-.999h-2.435c-.287-.937-.589-1.582-.832-2.001-.358-.616-1.022-.999-1.733-.999h-2.435c-.287-.937-.589-1.582-.832-2.001-.358-.616-1.022-.999-1.733-.999h-3.266s-.001-.001-.001-.001c-.358-.616-1.022-.999-1.733-.999h-2.482c-3.102 0-4.289 4.282-4.739 8h-8.445c-.282-.791-.876-1.434-1.644-1.761l.749-3.746 1.493-1.493c.378-.378.586-.88.586-1.414v-1.586c0-1.103-.897-2-2-2h-10c-1.103 0-2 .897-2 2v1.586c0 .534.208 1.036.586 1.414l1.493 1.493.749 3.746c-1.073.457-1.828 1.522-1.828 2.761v10c0 1.302.839 2.402 2 2.816v6.184c0 .939.448 1.836 1.2 2.4l2.667 2c.516.387 1.155.6 1.8.6h3.333c.347 0 .668-.18.851-.474.182-.295.199-.663.044-.973l-1-2c-.069-.139-.17-.26-.294-.353l-3.2-2.4c-.252-.188-.401-.487-.401-.8v-4h2c1.654 0 3-1.346 3-3h4v5c0 6.871 4.072 9.687 5.863 10.592-1.467 7.49-2.372 14.325-2.7 16.977-.156 1.263.452 2.469 1.548 3.073 4.231 2.331 10.044 2.358 10.289 2.358 4.313 0 7.19-.739 8.845-1.358 1.315-.494 2.144-1.809 2.015-3.199l-1.515-16.299c5.628-3.696 5.208-13.807 5.057-15.895.23-.368.391-.787.487-1.249h14.111c1.654 0 3-1.346 3-3v-3c0-2.757-2.243-5-5-5zm-15.515 1.002c.455.787 1.515 3.239 1.515 8.998 0 .823-.214 1.801-1.884 2.057-.37.055-.63-.116-.755-.223-.23-.197-.361-.483-.361-.784v-4.05c0-2.526-.198-4.485-.476-5.999zm-5-3c.455.787 1.515 3.239 1.515 8.998 0 1.383-.617 2-2 2-.387 0-1-.258-1-.95v-4.05c0-2.526-.198-4.485-.476-5.999zm-10.108 9.019c.747-.111 1.402-.324 1.929-.657.18.371.431.707.752.981.545.465 1.23.714 1.933.714.156 0 .313-.012.47-.038.579-.093 1.092-.262 1.539-.495v.522c0 .347.068.658.165.95h-8.342c.675-.671 1.182-1.335 1.554-1.977zm5.108-12.019c.455.787 1.515 3.239 1.515 8.998 0 .815-.211 1.785-1.855 2.048-.383.061-.66-.114-.789-.224-.226-.193-.356-.474-.356-.771v-2.053c0-3.828-.452-6.362-.953-7.999zm-7.485-1.002 2.485.002c.455.787 1.515 3.239 1.515 8.998 0 .59-.121 1.24-.763 1.662.078-.485.096-.938.072-1.347-.04-.664-.373-1.261-.914-1.64-.413-.289-.905-.413-1.396-.37v-4.305c0-.552-.448-1-1-1s-1 .448-1 1v4.856l-1.944.583c.253-4.388 1.278-8.439 2.945-8.439zm-24-2.414v-1.586h10v1.586l-1.707 1.707c-.14.14-.235.317-.273.511l-.84 4.196h-4.36l-.84-4.196c-.038-.194-.133-.371-.273-.511zm5.2 28.814 3.011 2.258.171.342h-1.715c-.215 0-.428-.071-.6-.2l-2.667-2c-.251-.188-.4-.487-.4-.8v-6h1v4c0 .939.448 1.836 1.2 2.4zm3.8-9.4c0 .551-.449 1-1 1h-6c-.551 0-1-.449-1-1v-10c0-.551.449-1 1-1h6c.551 0 1 .449 1 1zm6-5.256v3.256h-4v-7h8.076c-.023.368-.043.724-.055 1.049l-2.595.779c-.853.256-1.426 1.026-1.426 1.916zm22.815 20.985c-.353.19-.558.574-.521.973l1.574 16.926c.046.502-.245.961-.726 1.141-1.498.562-4.128 1.231-8.142 1.231-.055 0-5.549-.03-9.324-2.11-.376-.207-.583-.629-.528-1.076.336-2.722 1.287-9.889 2.832-17.618.099-.495-.186-.985-.664-1.145-.053-.017-5.316-1.855-5.316-9.051v-10.256l8.147-2.444c.016-.006.056-.017.103.016.026.019.059.054.063.119.082 1.385-.522 3.503-3.868 5.734-.375.25-.537.72-.394 1.148l1 3c.136.407.518.682.947.684.246 0 6.002.063 6.002 3.999 0 4.353-2.457 6.1-2.555 6.168-.459.306-.583.927-.277 1.387.307.459.927.583 1.387.277.14-.094 3.445-2.36 3.445-7.832 0-4.355-4.406-5.77-7.271-5.973l-.342-1.027h12.613c.767 0 1.431-.164 2-.443v.492c0 .885.385 1.724 1.058 2.301.542.465 1.224.716 1.921.716.146 0 .293-.011.439-.033.378-.058.719-.157 1.042-.275.06 3.328-.324 10.641-4.645 12.971zm22.185-18.729c0 .551-.449 1-1 1h-14.012c-.071-3.275-.486-5.51-.942-7h12.954c1.654 0 3 1.346 3 3z"/></g></svg>