<svg height="512" viewBox="0 0 60 60" width="512" xmlns="http://www.w3.org/2000/svg"><g id="Page-1" fill="#0f3693" fill-rule="evenodd"><g id="048---Urban-Development" fill="#0f3693" fill-rule="nonzero"><path id="Shape" d="m24 52h-4v-34h17v6h-1c-1.6568542 0-3 1.3431458-3 3v1c0 1.1045695.8954305 2 2 2h6c1.1045695 0 2-.8954305 2-2v-1c0-1.6568542-1.3431458-3-3-3h-1v-6h12c1.1045695 0 2-.8954305 2-2v-1c-.0033061-2.7600532-2.2399468-4.9966939-5-5h-5.813l-22.332-8.739c-.3022617-.76014115-1.036969-1.25958372-1.855-1.261h-6c-.9181985.00277361-1.7165538.63040622-1.936 1.522l-6.478 6.478h-.586c-1.65685425 0-3 1.34314575-3 3v6c0 1.6568542 1.34314575 3 3 3h1c1.26678543-.0052514 2.39374545-.8056491 2.816-2h3.184v34h-4c-2.209139 0-4 1.790861-4 4v2c0 1.1045695.8954305 2 2 2h22c1.1045695 0 2-.8954305 2-2v-2c0-2.209139-1.790861-4-4-4zm17-25v1h-6v-1c0-.5522847.4477153-1 1-1h4c.5522847 0 1 .4477153 1 1zm-29-3.586 5.586 5.586-5.586 5.586zm6 8v11.172l-5.586-5.586zm-.414 13.586-5.586 5.586v-11.172zm.414 2.414v4.586h-4.586zm-11.184-37.414c-.19596595-.55107443-.54920153-1.03260127-1.016-1.385l4.2-4.2v5.585zm5.184-4.586 4.586 4.586h-4.586zm24.7 4.586h-16.7v-6.534zm-18.7-8v6.586l-6-6v-.586zm-14 16h-1c-.55228475 0-1-.4477153-1-1v-6c0-.5522847.44771525-1 1-1h1c.55228475 0 1 .4477153 1 1v6c0 .5522847-.44771525 1-1 1zm3-6h41c1.6568542 0 3 1.3431458 3 3v1h-44zm11 6v8.586l-6-6v-2.586zm-14 40v-2c0-1.1045695.8954305-2 2-2h18c1.1045695 0 2 .8954305 2 2v2z"/><path id="Shape" d="m58 39h-12v-4c0-1.1045695-.8954305-2-2-2h-12c-1.1045695 0-2 .8954305-2 2v23c0 1.1045695.8954305 2 2 2h26c1.1045695 0 2-.8954305 2-2v-17c0-1.1045695-.8954305-2-2-2zm-26-4h12v23h-2v-4c0-1.1045695-.8954305-2-2-2h-4c-1.1045695 0-2 .8954305-2 2v4h-2zm4 23v-4h4v4zm14 0v-4h4v4zm8 0h-2v-4c0-1.1045695-.8954305-2-2-2h-4c-1.1045695 0-2 .8954305-2 2v4h-2v-17h12z"/><path id="Shape" d="m36 50c.5522847 0 1-.4477153 1-1v-1c0-.5522847-.4477153-1-1-1s-1 .4477153-1 1v1c0 .5522847.4477153 1 1 1z"/><path id="Shape" d="m40 50c.5522847 0 1-.4477153 1-1v-1c0-.5522847-.4477153-1-1-1s-1 .4477153-1 1v1c0 .5522847.4477153 1 1 1z"/><path id="Shape" d="m36 45c.5522847 0 1-.4477153 1-1v-1c0-.5522847-.4477153-1-1-1s-1 .4477153-1 1v1c0 .5522847.4477153 1 1 1z"/><path id="Shape" d="m40 45c.5522847 0 1-.4477153 1-1v-1c0-.5522847-.4477153-1-1-1s-1 .4477153-1 1v1c0 .5522847.4477153 1 1 1z"/><path id="Shape" d="m36 40c.5522847 0 1-.4477153 1-1v-1c0-.5522847-.4477153-1-1-1s-1 .4477153-1 1v1c0 .5522847.4477153 1 1 1z"/><path id="Shape" d="m40 40c.5522847 0 1-.4477153 1-1v-1c0-.5522847-.4477153-1-1-1s-1 .4477153-1 1v1c0 .5522847.4477153 1 1 1z"/><path id="Shape" d="m49 50h6c.5522847 0 1-.4477153 1-1s-.4477153-1-1-1h-6c-.5522847 0-1 .4477153-1 1s.4477153 1 1 1z"/><path id="Shape" d="m49 46h6c.5522847 0 1-.4477153 1-1s-.4477153-1-1-1h-6c-.5522847 0-1 .4477153-1 1s.4477153 1 1 1z"/></g></g></svg>