<svg id="Capa_1" enable-background="new 0 0 512 512" height="512" viewBox="0 0 512 512" width="512" xmlns="http://www.w3.org/2000/svg" fill="#fff"><g><path d="m339.044 411.795c5.238 0 9.5-4.262 9.5-9.5v-32.364c0-5.238-4.262-9.5-9.5-9.5h-32.364c-5.238 0-9.5 4.262-9.5 9.5v32.364c0 5.238 4.262 9.5 9.5 9.5zm-26.864-36.363h21.364v21.364h-21.364z"/><path d="m417.416 411.795c5.238 0 9.5-4.262 9.5-9.5v-32.364c0-5.238-4.262-9.5-9.5-9.5h-32.364c-5.238 0-9.5 4.262-9.5 9.5v32.364c0 5.238 4.262 9.5 9.5 9.5zm-26.864-36.363h21.364v21.364h-21.364z"/><path d="m470.695 497h-9.954v-158.35c0-5.256-3.439-9.719-8.183-11.272v-74.928c0-4.142-3.357-7.5-7.5-7.5s-7.5 3.358-7.5 7.5v14.68h-68.01v-66.688c0-4.142-3.357-7.5-7.5-7.5s-7.5 3.358-7.5 7.5v7.032h-68.009v-7.032c0-4.142-3.357-7.5-7.5-7.5s-7.5 3.358-7.5 7.5v103.918c-4.646 1.609-7.995 6.018-7.995 11.204v62.917c0 4.142 3.357 7.5 7.5 7.5s7.5-3.358 7.5-7.5v-59.781h97.008v12.313c0 5.94 4.833 10.774 10.774 10.774h59.415v155.213h-51.689v-53.257c0-5.238-4.262-9.5-9.5-9.5h-45.006c-5.238 0-9.5 4.262-9.5 9.5v53.257h-51.501v-83.52c0-4.142-3.357-7.5-7.5-7.5s-7.5 3.358-7.5 7.5v83.52h-9.954c-4.143 0-7.5 3.358-7.5 7.5s3.357 7.5 7.5 7.5h217.105c4.143 0 7.5-3.358 7.5-7.5-.001-4.142-3.358-7.5-7.501-7.5zm-116.147-274.527v44.656h-68.009v-44.656zm-68.009 59.656h68.009v21.569h-68.009zm92.149 21.569h-9.14v-21.569h68.01v44.656h-47.005v-11.222c-.001-6.542-5.323-11.865-11.865-11.865zm-33.643 145.545h34.006v47.757h-34.006z"/><path d="m211.737 467.872c-1.244-4.114-4.968-6.879-9.267-6.879h-11.695v-324.996h6.881c3.508 0 6.816-1.539 9.075-4.222 2.26-2.684 3.213-6.206 2.616-9.664l-.919-5.315h71.362c4.143 0 7.5-3.358 7.5-7.5s-3.357-7.5-7.5-7.5h-73.956l-3.292-19.04h233.129c5.25 0 9.521 4.271 9.521 9.52s-4.271 9.52-9.521 9.52h-120.88c-4.143 0-7.5 3.358-7.5 7.5s3.357 7.5 7.5 7.5h93.939v51.223c-10.113 3.192-17.467 12.662-17.467 23.817 0 13.767 11.2 24.967 24.967 24.967s24.967-11.2 24.967-24.967c0-4.142-3.357-7.5-7.5-7.5s-7.5 3.358-7.5 7.5c0 5.496-4.471 9.966-9.967 9.966s-9.967-4.471-9.967-9.966 4.471-9.967 9.967-9.967c4.143 0 7.5-3.358 7.5-7.5v-57.572h11.943c13.521 0 24.521-11 24.521-24.52s-11-24.52-24.521-24.52h-54.687l-221.089-67.437c-.011-.003-.021-.005-.032-.008-.92-.276-1.696-.337-2.476-.304-1.422.059-2.65.484-3.734 1.182-.57.366 8.232-5.573-98.345 66.565h-10.732c-5.939 0-10.771 4.832-10.771 10.77v27.5c0 5.939 4.832 10.77 10.771 10.77h14.658v26.708h-13.567c-6.542 0-11.864 5.322-11.864 11.864v26.205c0 6.542 5.322 11.864 11.864 11.864h42.132c6.542 0 11.864-5.322 11.864-11.864v-26.205c0-6.542-5.322-11.864-11.864-11.864h-13.565v-26.708h33.211l-.919 5.316c-.597 3.457.356 6.979 2.616 9.663 2.259 2.683 5.567 4.222 9.075 4.222h6.424v324.996h-11.694c-4.295 0-8.019 2.761-9.267 6.875l-9.588 31.642c-.885 2.919-.328 6.126 1.49 8.576 1.817 2.451 4.725 3.914 7.775 3.914h108.699c3.052 0 5.959-1.463 7.777-3.914 1.817-2.45 2.374-5.657 1.489-8.576zm-127.071-289.435h-35.861v-19.933h35.861zm91.108 214.074-26.731-29.543h26.731zm0-56.511-26.731-29.543h26.731zm0-56.511-26.731-29.544h26.731zm0-56.511-26.731-29.544h26.731zm-9.4 11.967h-26.731v-29.544zm0 56.512h-26.731v-29.544zm-.001 56.511h-26.73v-29.543zm-26.73 26.968 26.731 29.543h-26.731zm0-196.502v-29.549l26.732 29.549zm36.131 241.045v29.545l-26.732-29.545zm0-253.014-27.564-30.468h27.564zm24.176-98.71-1.619-9.364c-.987-5.702-5.903-9.841-11.691-9.841h-21.431v-30.927l164.359 50.131h-129.618zm-49.741-46.127v26.921h-20.974c-5.789 0-10.705 4.14-11.691 9.843l-1.619 9.362h-33.856zm-83.444 80.167h-17.958v-19.04h64.525l-3.292 19.04zm56.936 9.033c.008-.037.012-.075.02-.113l8.155-47.166h52.124l9.932 57.447h-71.989zm15.942 320.62 26.732 29.545h-26.732zm-29.114 65.552 6.364-21.007h81.632l6.365 21.007z"/></g></svg>