<?xml version="1.0" encoding="UTF-8"?>
<svg xmlns="http://www.w3.org/2000/svg" viewBox="0 0 512 512" width="512" height="512" fill="#fff"> <g id="outline"><circle cx="229" cy="155.895" r="13"/><circle cx="283" cy="155.895" r="13"/><path d="M241.194,192.1A8,8,0,0,0,248,195.9h8a8,8,0,0,0,4.313-14.739l2.842-5.684a8,8,0,1,0-14.31-7.155l-8,16A8,8,0,0,0,241.194,192.1Z"/><path d="M274.343,198.238a19.185,19.185,0,0,1-13.656,5.657H248a8,8,0,0,0,0,16h12.687a35.081,35.081,0,0,0,24.97-10.344,8,8,0,1,0-11.314-11.313Z"/><path d="M436.984,374.635c4.3-5.426,5.343-12.943,2.87-20.633a38.932,38.932,0,0,0-13.009-18.04,41.022,41.022,0,0,0-14.47-7.509l6.921-8.708c8.372-10.537,3.926-27.535-10.122-38.7a38.915,38.915,0,0,0-20.512-8.6c-8.067-.679-15.159,2.051-19.472,7.479l-4.338,5.46a34.033,34.033,0,0,0-10.95-3.317l-42.611-5.326C310.9,275.87,296,260.686,296,260.686s-.057-12.328-.166-12.852a72.052,72.052,0,0,0,31.815-52.87A32,32,0,0,0,328,132.907v-1.531a20.546,20.546,0,0,0,16-20,22.027,22.027,0,0,0-8.208-17.1A80.1,80.1,0,0,0,287.869,26.5a7.994,7.994,0,0,0-5.34-6.2,84.41,84.41,0,0,0-53.058,0,7.994,7.994,0,0,0-5.337,6.183,79.515,79.515,0,0,0-47.926,67.784,22.028,22.028,0,0,0-8.208,17.1,20.546,20.546,0,0,0,16,20v1.531a32,32,0,0,0,.351,62.057A72.051,72.051,0,0,0,216,247.728v12.958s-14.9,15.184-15.291,16.058L158.1,282.07a34.042,34.042,0,0,0-27.256,20.875L80.6,425.9a8,8,0,0,0-.317,5.118l16,59.077A8,8,0,0,0,104,496H408a8,8,0,0,0,7.722-5.909l16-59.077a8,8,0,0,0-.317-5.118l-11.939-29.214,17.5-22.021ZM403.937,343.24c3.451,0,8.237,1.5,12.953,5.249a23.158,23.158,0,0,1,7.732,10.414c.8,2.482.732,4.65-.181,5.8l0,0c-.914,1.15-3,1.709-5.611,1.488a23.156,23.156,0,0,1-11.891-5.18c-7.644-6.073-9.577-13.657-7.553-16.213l.007-.008C400.169,343.818,401.8,343.24,403.937,343.24Zm-25,78.728-3.038-2.263L374.7,407.237a8,8,0,0,0-5.949-6.979l-11.137-2.9L386.4,361.142a42.446,42.446,0,0,0,25.061,19.9ZM189.467,480a63.625,63.625,0,0,1,6.517-55.735L319.5,431.984a8.008,8.008,0,0,0,7.155-3.546L339.5,409.177l19.813,5.156,1,10.43a8,8,0,0,0,3.184,5.653L382.528,444.6,370.3,480ZM184,360V294.957l22-2.749L224.767,323.5l23.743,63.314a8,8,0,0,0,14.98,0L287.233,323.5l18.773-31.288,45.753,5.719v3.937l-87.9,110.612L195.518,408.2l-1.212-1.212A32.754,32.754,0,0,0,168,397.54V386.422l14.656-21.984A8,8,0,0,0,184,360Zm40.751-85.437L244.8,289.6l-12.062,16.082L218.073,281.24ZM256,301.334,270.971,321.3,256,361.216,241.029,321.3Zm31.249-26.771,6.678,6.677-14.665,24.442L267.2,289.6Zm92.062,44.062a41.179,41.179,0,0,0,14.479,7.5l-53.108,66.828-2.667-.694a8,8,0,0,0-8.671,3.3L315.9,415.728l-32.573-2.036,85.4-107.466A40.962,40.962,0,0,0,379.311,318.625Zm6.935-30.279c.349,0,.71.015,1.082.047a23.156,23.156,0,0,1,11.892,5.18c7.646,6.076,9.578,13.663,7.55,16.218-.915,1.149-3.014,1.7-5.613,1.489a23.163,23.163,0,0,1-11.891-5.181c-7.647-6.077-9.579-13.664-7.549-16.218C382.5,288.9,384.152,288.346,386.246,288.346ZM336,163.9a16.008,16.008,0,0,1-8,13.852V150.042A16.008,16.008,0,0,1,336,163.9ZM318.943,88.324l-19-3.8L288,72.581V44.459A64.131,64.131,0,0,1,318.943,88.324ZM272,33.917V75.9a8,8,0,0,0,2.343,5.656l16,16a8,8,0,0,0,4.088,2.188l28.746,5.749A6.016,6.016,0,0,1,328,111.372a4.527,4.527,0,0,1-4.522,4.523H188.522A4.527,4.527,0,0,1,184,111.372a6.016,6.016,0,0,1,4.823-5.884l28.746-5.749a8,8,0,0,0,4.088-2.188l16-16A8,8,0,0,0,240,75.9V34.415c.061-.177.121-.355.169-.536A68.525,68.525,0,0,1,272,33.917Zm-48,10.5V72.581L212.056,84.525l-19.01,3.8A63.514,63.514,0,0,1,224,44.422ZM176,163.9a16.008,16.008,0,0,1,8-13.853v27.705A16.008,16.008,0,0,1,176,163.9Zm24,24v-56H312v56a56,56,0,0,1-112,0Zm56,72a71.659,71.659,0,0,0,24-4.129V260l-24,18-24-18v-4.234A71.659,71.659,0,0,0,256,259.9ZM96.43,429.443,145.652,309a18.027,18.027,0,0,1,14.43-11.052l7.918-.989v60.621l-14.656,21.984A8,8,0,0,0,152,384v21.784l-4.7,7.826a79.65,79.65,0,0,0-7,66.39H110.121ZM157.417,480l-.877-2.191h0a63.527,63.527,0,0,1,4.484-55.967l4.51-7.516a16.788,16.788,0,0,1,16.072,2.738A79.833,79.833,0,0,0,172.691,480ZM415.57,429.443,401.879,480H387.227l12.335-35.711a8,8,0,0,0-2.783-9.027l-5.007-3.731,16.28-20.486Z"/></g></svg>
