<?xml version="1.0" encoding="iso-8859-1"?>
<!-- Generator: Adobe Illustrator 16.0.0, SVG Export Plug-In . SVG Version: 6.00 Build 0)  -->
<!DOCTYPE svg PUBLIC "-//W3C//DTD SVG 1.1//EN" "http://www.w3.org/Graphics/SVG/1.1/DTD/svg11.dtd">
<svg version="1.1" id="Capa_1" xmlns="http://www.w3.org/2000/svg" xmlns:xlink="http://www.w3.org/1999/xlink" x="0px" y="0px"
	 width="235.508px" height="235.509px" viewBox="0 0 235.508 235.509" style="enable-background:new 0 0 235.508 235.509;"
	 xml:space="preserve">
<g>
	<g>
		<path d="M201.317,136.723c6.869-6.372,11.302-15.288,11.302-25.361c0-19.209-15.625-34.841-34.837-34.841
			c-5.551,0-10.616,1.587-15.272,3.909c2.717-7.842,4.296-15.745,4.296-22.758c0-27.046-22.021-49.057-49.051-49.057
			c-27.042,0-49.057,22.003-49.057,49.057c0,7.013,1.571,14.916,4.286,22.744c-4.655-2.308-9.71-3.895-15.252-3.895
			c-19.208,0-34.84,15.631-34.84,34.841c0,10.073,4.436,18.989,11.313,25.361C14.577,141.948,0,159.705,0,180.94
			c0,25.331,20.614,45.953,45.939,45.953c20.34,0,37.448-13.372,43.469-31.723c6.641,3.587,17.184,8.095,30.17,8.095
			c8.352,0,17.496-2.056,26.742-7.39c6.223,17.985,23.158,31.018,43.239,31.018c25.327,0,45.949-20.622,45.949-45.953
			C235.508,159.705,220.946,141.948,201.317,136.723z M201.425,111.362c0,13.03-10.611,23.642-23.644,23.642
			s-23.628-10.624-23.628-23.642c0-13.034,10.596-23.632,23.628-23.632S201.425,98.319,201.425,111.362z M71.853,143.07
			c4.619-2.088,8.486-5.229,11.774-8.984c8.404,5.014,29.354,14.655,55.656,5.687c-8.448,12.251-24.039,28.673-47.693,38.163
			C90.624,163.477,83.134,150.797,71.853,143.07z M89.845,124.784c1.721-4.1,2.695-8.628,2.711-13.37
			c7.251,6.704,15.731,11.246,25.199,11.246c9.478,0,17.953-4.542,25.198-11.246c0.017,4.634,0.982,9.006,2.653,13.062
			C118.776,138.759,97.547,129.453,89.845,124.784z M117.754,19.816c20.883,0,37.842,16.981,37.842,37.856
			c0,20.759-17.312,53.8-37.842,53.8s-37.852-33.041-37.852-53.8C79.91,36.797,96.879,19.816,117.754,19.816z M57.731,87.722
			c13.032,0,23.628,10.598,23.628,23.632c0,13.038-10.604,23.626-23.628,23.626c-13.032,0-23.64-10.6-23.64-23.626
			C34.091,98.319,44.699,87.722,57.731,87.722z M45.947,215.685c-19.146,0-34.736-15.576-34.736-34.744
			c0-19.136,15.591-34.729,34.736-34.729c19.162,0,34.752,15.585,34.752,34.729C80.692,200.108,65.103,215.685,45.947,215.685z
			 M98.833,187.617c31.508-13.529,48.56-38.315,55.521-50.834c2.773,2.528,5.859,4.712,9.306,6.279
			c-12.066,8.279-20.037,22.145-20.037,37.878c0,1.082,0.244,2.092,0.305,3.142C126.447,196.089,109.23,192.258,98.833,187.617z
			 M189.572,215.685c-19.164,0-34.757-15.576-34.757-34.744c0-19.136,15.585-34.729,34.757-34.729
			c19.144,0,34.744,15.585,34.744,34.729C224.316,200.108,208.723,215.685,189.572,215.685z"/>
		<circle cx="117.747" cy="47.458" r="11.963"/>
	</g>
</g>
<g>
</g>
<g>
</g>
<g>
</g>
<g>
</g>
<g>
</g>
<g>
</g>
<g>
</g>
<g>
</g>
<g>
</g>
<g>
</g>
<g>
</g>
<g>
</g>
<g>
</g>
<g>
</g>
<g>
</g>
</svg>
