<svg id="Layer_1" height="512" viewBox="0 0 512 512" width="512" xmlns="http://www.w3.org/2000/svg" data-name="Layer 1" fill="#0f3693"><path d="m160.181 102.888c-14.679 0-22.044 17.783-11.665 28.162a4.9 4.9 0 0 1 0 6.925l-10.541 10.541a4.9 4.9 0 0 1 -6.925 0c-10.379-10.379-28.162-3.014-28.162 11.665a4.9 4.9 0 0 1 -4.9 4.9h-14.903a4.9 4.9 0 0 1 -4.9-4.9c0-14.7-17.77-22.057-28.162-11.665a4.9 4.9 0 0 1 -6.925 0l-10.537-10.541a4.9 4.9 0 0 1 0-6.925c10.379-10.379 3.014-28.162-11.665-28.162a4.9 4.9 0 0 1 -4.9-4.9v-14.903a4.9 4.9 0 0 1 4.9-4.9c14.679 0 22.044-17.783 11.665-28.162a4.9 4.9 0 0 1 0-6.925l10.539-10.537a4.9 4.9 0 0 1 6.925 0c10.381 10.379 28.164 3.014 28.164-11.661a4.9 4.9 0 0 1 4.9-4.9h14.903a4.9 4.9 0 0 1 4.9 4.9c0 14.679 17.783 22.044 28.162 11.665a4.9 4.9 0 0 1 6.925 0l10.537 10.535a4.9 4.9 0 0 1 0 6.925c-10.379 10.379-3.014 28.162 11.665 28.162a4.9 4.9 0 0 1 4.9 4.9v14.905a4.9 4.9 0 0 1 -4.9 4.9zm-98.246 114.177a38.935 38.935 0 1 0 38.934 38.935 38.933 38.933 0 0 0 -38.934-38.935zm194.065 180.066a52.687 52.687 0 0 1 29.4 8.909 77.657 77.657 0 0 0 47.926-71.513v-117.853h-24v117.853a53.3 53.3 0 0 1 -105.052 12.8h-24.547a77.946 77.946 0 0 0 46.873 58.714 52.683 52.683 0 0 1 29.4-8.91zm29.4-291.171a77.951 77.951 0 0 1 46.874 58.714h-24.548a53.3 53.3 0 0 0 -105.052 12.8v117.851h-24v-117.852a77.652 77.652 0 0 1 47.926-71.514 52.959 52.959 0 0 0 58.8 0zm-29.4-82.96a38.935 38.935 0 1 0 38.935 38.935 38.933 38.933 0 0 0 -38.935-38.935zm150.041 262.4a77.957 77.957 0 0 1 -58.715 46.875v-24.549a53.3 53.3 0 0 0 -12.8-105.052h-117.851v-24h117.852a77.65 77.65 0 0 1 71.514 47.926 52.955 52.955 0 0 0 0 58.8zm44.024-68.333a38.935 38.935 0 1 0 38.935 38.933 38.932 38.932 0 0 0 -38.935-38.935zm-344.106 9.533a77.946 77.946 0 0 1 58.716-46.874v24.547a53.3 53.3 0 0 0 12.8 105.052h117.851v24h-117.853a77.656 77.656 0 0 1 -71.513-47.925 52.958 52.958 0 0 0 0-58.8zm150.041 184.531a38.935 38.935 0 1 0 38.935 38.934 38.933 38.933 0 0 0 -38.935-38.934zm235.1 22.68c-14.679 0-22.044 17.783-11.665 28.162a4.9 4.9 0 0 1 0 6.925l-10.535 10.541a4.9 4.9 0 0 1 -6.925 0c-10.379-10.379-28.162-3.014-28.162 11.665a4.9 4.9 0 0 1 -4.9 4.9h-14.905a4.9 4.9 0 0 1 -4.9-4.9c0-14.7-17.77-22.057-28.162-11.665a4.9 4.9 0 0 1 -6.925 0l-10.537-10.539a4.9 4.9 0 0 1 0-6.925c10.379-10.379 3.014-28.162-11.665-28.162a4.9 4.9 0 0 1 -4.9-4.9v-14.905a4.9 4.9 0 0 1 4.9-4.9c14.679 0 22.044-17.783 11.665-28.162a4.9 4.9 0 0 1 0-6.925l10.541-10.541a4.9 4.9 0 0 1 6.925 0c10.379 10.379 28.162 3.014 28.162-11.665a4.9 4.9 0 0 1 4.9-4.9h14.907a4.9 4.9 0 0 1 4.9 4.9c0 14.679 17.783 22.044 28.162 11.665a4.9 4.9 0 0 1 6.925 0l10.541 10.541a4.9 4.9 0 0 1 0 6.925c-10.379 10.379-3.014 28.162 11.665 28.162a4.9 4.9 0 0 1 4.9 4.9v14.907a4.9 4.9 0 0 1 -4.9 4.9zm-69.642-48.775a36.426 36.426 0 1 0 36.425 36.426 36.425 36.425 0 0 0 -36.425-36.426zm-330.919-330.923a36.426 36.426 0 1 0 36.425 36.425 36.425 36.425 0 0 0 -36.425-36.425z" fill-rule="evenodd"/></svg>