<svg id="Layer_1" enable-background="new 0 0 512 512" height="512" viewBox="0 0 512 512" width="512" xmlns="http://www.w3.org/2000/svg" fill="#fff"><path d="m484.74 405.922h-18.764v-60.968c0-5.562-4.509-10.07-10.071-10.07s-10.071 4.509-10.071 10.07v60.968h-22.591-.044-72.001-.044-72.002-.035-72.039-.044-61.314c-11.447 0-20.76 9.32-20.76 20.777v48.477h-70.48c-15.35 0-27.837-12.471-27.837-27.8 0-15.344 12.487-27.827 27.837-27.827h27.134c12.682 0 23-10.299 23-22.958v-246.097h167.577l-73.763 73.698c-2.341 2.34-4.305 4.204-6.038 5.85-.632.6-1.231 1.172-1.806 1.727-.08.075-.165.142-.243.22-.037.037-.068.078-.104.115-6.717 6.513-9.747 10.506-14.595 23.2-9.783 25.552-19.538 51.104-29.295 76.662-2.082 5.466-.765 11.654 3.354 15.763 2.827 2.82 6.514 4.305 10.317 4.305 1.797 0 3.622-.332 5.393-1.012 25.577-9.744 51.155-19.489 76.724-29.26 12.773-4.868 16.771-7.911 23.337-14.681.006-.006.014-.012.02-.018.013-.013.023-.027.036-.04.629-.649 1.28-1.33 1.966-2.052 1.63-1.716 3.478-3.661 5.787-5.973l145.199-145.03c16.35 6.858 27.353 22.997 27.353 41.009v60.246c0 5.562 4.509 10.07 10.071 10.07s10.071-4.509 10.071-10.07v-60.246c0-23.421-12.791-44.656-32.486-56.001l16.465-16.446c.02-.02.042-.036.063-.057.019-.019.035-.04.054-.06l36.626-36.584c7.095-7.088 10.998-16.541 10.991-26.619-.007-10.064-3.913-19.496-10.987-26.543l-21.665-21.673c-14.674-14.659-38.549-14.658-53.221 0l-119.465 119.359h-187.737v-10.012c0-12.659-10.318-22.958-23-22.958h-27.133c-26.456 0-47.98 21.506-47.98 47.941v302.052c0 26.435 21.524 47.941 47.98 47.941h70.886c1.897 9.5 10.3 16.683 20.355 16.683h78.566c5.562 0 10.071-4.509 10.071-10.07 0-5.562-4.509-10.07-10.071-10.07h-78.567c-.307 0-.618-.307-.618-.608v-64.552c0-.321.306-.636.618-.636h51.328l.099 23.141c.024 5.547 4.528 10.027 10.07 10.027h.044c5.562-.024 10.052-4.552 10.028-10.114l-.099-23.054h51.923l.079 23.132c.02 5.55 4.524 10.036 10.07 10.036h.035c5.562-.019 10.056-4.543 10.037-10.105l-.079-23.063h51.912l.099 23.14c.024 5.547 4.528 10.028 10.07 10.028h.044c5.562-.023 10.052-4.552 10.028-10.113l-.098-23.055h51.902l.099 23.14c.024 5.547 4.528 10.028 10.07 10.028h.044c5.562-.023 10.052-4.552 10.028-10.113l-.098-23.055h51.384c.329 0 .618.297.618.636v64.552c0 .318-.295.608-.618.608h-170.601c-5.562 0-10.071 4.509-10.071 10.07 0 5.562 4.509 10.07 10.071 10.07h170.602c11.447 0 20.76-9.308 20.76-20.749v-64.552c0-11.456-9.314-20.777-20.76-20.777zm-181.218-258.259c.084-.081.166-.163.246-.246l78.465-78.396 16.075 16.051-170.392 170.22-16.064-16.048c.271-.269.53-.522.811-.802zm-124.795 155.987 15.027 15.011c-8.103 3.089-16.201 6.183-24.308 9.272 3.089-8.094 6.189-16.19 9.281-24.283zm56.227-.704c-6.857 2.62-13.718 5.231-20.575 7.848l-27.777-27.749c2.619-6.85 5.23-13.698 7.853-20.548 1.472-3.854 2.563-6.434 3.688-8.478l45.293 45.247c-2.049 1.123-4.633 2.213-8.482 3.68zm24.094-18.196c-.003.003-.006.006-.009.009-.284.285-.538.544-.808.817l-16.065-16.048 170.395-170.224 16.075 16.051zm167.002-259.507c3.412-3.41 7.894-5.114 12.376-5.114 4.48 0 8.96 1.704 12.368 5.109l21.676 21.682c3.27 3.258 5.073 7.627 5.076 12.303.003 4.689-1.803 9.078-5.084 12.356l-29.575 29.542-46.405-46.336zm-399.408 120.081c0-15.329 12.487-27.8 27.837-27.8h27.134c1.549 0 2.858 1.29 2.858 2.817v276.249c0 1.527-1.308 2.817-2.858 2.817h-27.133c-10.37 0-19.982 3.307-27.837 8.919v-263.002z"/><path d="m269.198 491.859h-.17c-5.562 0-10.071 4.509-10.071 10.07 0 5.562 4.509 10.07 10.071 10.07h.17c5.562 0 10.071-4.509 10.071-10.07s-4.509-10.07-10.071-10.07z"/><path d="m455.904 289.82c-5.562 0-10.071 4.509-10.071 10.07v.198c0 5.562 4.509 10.07 10.071 10.07s10.071-4.509 10.071-10.07v-.198c.001-5.561-4.509-10.07-10.071-10.07z"/></svg>