<?xml version="1.0" standalone="no"?>
<!DOCTYPE svg >
<svg version="1.0" xmlns="http://www.w3.org/2000/svg"
 width="393.000000pt" height="339.000000pt" viewBox="0 0 393.000000 339.000000"
 preserveAspectRatio="xMidYMid meet">
<metadata>
</metadata>
<g transform="translate(0.000000,339.000000) scale(0.100000,-0.100000)"
fill="#0f3693" stroke="none">
<path d="M496 2549 c-267 -462 -486 -847 -486 -854 0 -7 219 -392 486 -854
l486 -841 988 0 988 0 486 841 c267 462 486 847 486 854 0 7 -219 392 -486
854 l-486 841 -988 0 -988 0 -486 -841z m2919 -10 c264 -457 480 -837 480
-844 0 -7 -216 -387 -480 -844 l-480 -831 -965 0 -965 0 -480 831 c-264 457
-480 837 -480 844 0 7 216 387 480 844 l480 831 965 0 965 0 480 -831z"/>
</g>
</svg>
