<?xml version="1.0" standalone="no"?>
<!DOCTYPE svg>
<svg version="1.0" xmlns="http://www.w3.org/2000/svg"
 width="524.000000pt" height="452.000000pt" viewBox="0 0 524.000000 452.000000"
 preserveAspectRatio="xMidYMid meet">

<g transform="translate(0.000000,452.000000) scale(0.100000,-0.100000)"
fill="#0f3693" stroke="none">
<path d="M685 3382 c-352 -609 -640 -1116 -640 -1127 0 -11 288 -519 640
-1128 l640 -1107 1295 0 1296 0 642 1111 c354 612 644 1115 645 1119 1 4 -288
510 -643 1124 l-645 1116 -1295 0 -1295 0 -640 -1108z m3844 -27 c404 -700
631 -1101 627 -1112 -4 -8 -288 -503 -633 -1099 l-626 -1084 -1276 0 -1277 0
-633 1096 c-501 866 -632 1099 -625 1114 5 10 290 505 634 1099 l625 1081
1275 0 1275 0 634 -1095z"/>
</g>
</svg>
