<svg id="Layer_1" enable-background="new 0 0 24 24" height="512" viewBox="0 0 24 24" width="512" xmlns="http://www.w3.org/2000/svg"><path d="m24 12c0-2.3-.1-4.4-.5-5.6-.4-1.4-.9-2.7-2.1-3.9-1.5-1.4-2.8-1.8-4.8-2.2-1.4-.2-3.1-.3-4.1-.3-.3 0-.6 0-.9 0-1.1 0-2.7.1-4.2.3-2 .4-3.4.9-4.8 2.2-1.3 1.2-1.7 2.5-2.1 3.9-.4 1.2-.5 3.3-.5 5.6 0 2.3.1 4.4.5 5.6.4 1.4.9 2.7 2.1 3.9 1.5 1.4 2.8 1.8 4.8 2.2 1.6.3 3.6.3 4.6.3 1 0 3 0 4.7-.3 1.9-.4 3.3-.8 4.8-2.2 1.2-1.1 1.7-2.4 2.1-3.9.3-1.2.4-3.3.4-5.6z" fill="#5ca3fb"/><path d="m9 6.7c-.4.4-.4 1 0 1.4l3.9 3.9-3.9 3.9c-.4.4-.4 1 0 1.4s1 .4 1.4 0l4.6-4.6c.4-.4.4-1 0-1.4l-4.6-4.6c-.4-.4-1-.4-1.4 0z" fill="#fff"/></svg>