<svg height="512pt" viewBox="-24 0 512 512" width="512pt" xmlns="http://www.w3.org/2000/svg" fill="#0f3693"><path d="m231.992188 199.988281c-26.800782 0-48.605469 21.777344-48.605469 48.546875 0 26.769532 21.804687 48.546875 48.605469 48.546875 26.800781 0 48.605468-21.777343 48.605468-48.546875 0-26.769531-21.804687-48.546875-48.605468-48.546875zm0 82.109375c-18.53125 0-33.605469-15.058594-33.605469-33.5625 0-18.507812 15.074219-33.566406 33.605469-33.566406s33.605468 15.058594 33.605468 33.566406c0 18.503906-15.074218 33.5625-33.605468 33.5625zm0 0"/><path d="m320.464844 181.863281-21.722656-21.695312c-2.640626-2.636719-6.824219-2.933594-9.808594-.691407l-16.363282 12.28125c-4.769531-2.519531-9.761718-4.582031-14.917968-6.171874l-2.875-20.238282c-.523438-3.695312-3.691406-6.441406-7.425782-6.441406h-30.71875c-3.738281 0-6.902343 2.746094-7.429687 6.441406l-2.875 20.238282c-5.15625 1.589843-10.144531 3.652343-14.914063 6.171874l-16.363281-12.28125c-2.988281-2.242187-7.167969-1.945312-9.8125.691407l-21.71875 21.695312c-2.640625 2.640625-2.9375 6.816407-.695312 9.796875l12.296875 16.347656c-2.519532 4.761719-4.589844 9.746094-6.179688 14.894532l-20.265625 2.875c-3.699219.523437-6.445312 3.6875-6.445312 7.417968v30.679688c0 3.730469 2.746093 6.894531 6.445312 7.417969l20.265625 2.875c1.589844 5.148437 3.65625 10.132812 6.179688 14.894531l-12.296875 16.347656c-2.242188 2.980469-1.945313 7.15625.695312 9.796875l21.71875 21.695313c2.644531 2.636718 6.824219 2.929687 9.8125.691406l16.363281-12.28125c4.769532 2.515625 9.757813 4.582031 14.914063 6.171875l2.875 20.238281c.527344 3.695313 3.691406 6.4375 7.429687 6.4375h30.71875c3.734376 0 6.898438-2.742187 7.425782-6.4375l2.875-20.238281c5.15625-1.589844 10.148437-3.65625 14.917968-6.171875l16.363282 12.28125c2.984375 2.242188 7.167968 1.945312 9.808594-.691406l21.722656-21.695313c2.640625-2.640625 2.933594-6.816406.691406-9.796875l-12.296875-16.347656c2.523437-4.761719 4.589844-9.746094 6.179687-14.894531l20.265626-2.875c3.699218-.523438 6.449218-3.6875 6.449218-7.417969v-30.679688c0-3.730468-2.75-6.894531-6.449218-7.417968l-20.265626-2.875c-1.589843-5.148438-3.65625-10.132813-6.179687-14.894532l12.296875-16.347656c2.242188-2.980468 1.949219-7.15625-.691406-9.796875zm6.289062 57.832031v17.675782l-18.683594 2.652344c-3.035156.429687-5.503906 2.660156-6.234374 5.636718-1.734376 7.09375-4.539063 13.855469-8.332032 20.09375-1.59375 2.617188-1.429687 5.9375.414063 8.386719l11.335937 15.070313-12.515625 12.496093-15.085937-11.320312c-2.453125-1.839844-5.777344-2.007813-8.398438-.414063-6.246094 3.785156-13.015625 6.585938-20.121094 8.324219-2.976562.726563-5.210937 3.191406-5.644531 6.222656l-2.648437 18.660157h-17.699219l-2.652344-18.660157c-.429687-3.03125-2.667969-5.496093-5.644531-6.222656-7.105469-1.738281-13.871094-4.539063-20.117188-8.324219-2.621093-1.59375-5.945312-1.425781-8.398437.414063l-15.085937 11.320312-12.515626-12.5 11.335938-15.066406c1.839844-2.449219 2.003906-5.769531.414062-8.386719-3.792968-6.238281-6.597656-13-8.335937-20.097656-.726563-2.972656-3.195313-5.207031-6.230469-5.636719l-18.683594-2.648437v-17.675782l18.683594-2.648437c3.035156-.429687 5.503906-2.664063 6.230469-5.636719 1.738281-7.097656 4.542969-13.855468 8.335937-20.09375 1.589844-2.621094 1.425782-5.941406-.414062-8.386718l-11.335938-15.070313 12.515626-12.5 15.085937 11.324219c2.453125 1.835937 5.777344 2.003906 8.398437.414062 6.246094-3.789062 13.011719-6.589844 20.117188-8.324218 2.976562-.730469 5.210938-3.191407 5.644531-6.226563l2.652344-18.660156h17.699219l2.648437 18.660156c.433594 3.03125 2.667969 5.496094 5.644531 6.226563 7.105469 1.734374 13.875 4.535156 20.121094 8.324218 2.621094 1.589844 5.945313 1.421875 8.398438-.414062l15.085937-11.324219 12.515625 12.5-11.335937 15.070313c-1.84375 2.445312-2.007813 5.769531-.414063 8.386718 3.792969 6.238282 6.59375 12.996094 8.332032 20.089844.726562 2.976562 3.195312 5.210938 6.230468 5.640625zm0 0"/><path d="m231.988281 58.914062c4.144531 0 7.5-3.351562 7.5-7.488281v-43.933593c0-4.140626-3.355469-7.492188-7.5-7.492188-4.140625 0-7.5 3.351562-7.5 7.492188v43.933593c0 4.136719 3.359375 7.488281 7.5 7.488281zm0 0"/><path d="m456.476562 224.214844h-43.988281c-4.144531 0-7.5 3.351562-7.5 7.488281 0 4.140625 3.355469 7.492187 7.5 7.492187h43.988281c4.140626 0 7.5-3.351562 7.5-7.492187 0-4.136719-3.359374-7.488281-7.5-7.488281zm0 0"/><path d="m51.488281 224.214844h-43.988281c-4.140625 0-7.5 3.351562-7.5 7.488281 0 4.140625 3.359375 7.492187 7.5 7.492187h43.988281c4.140625 0 7.5-3.351562 7.5-7.492187 0-4.136719-3.355469-7.488281-7.5-7.488281zm0 0"/><path d="m99.050781 109.523438c2.890625 2.886718 7.71875 2.886718 10.605469 0 2.929688-2.925782 2.929688-7.667969 0-10.59375l-31.101562-31.066407c-2.929688-2.921875-7.679688-2.921875-10.609376 0-2.925781 2.925781-2.925781 7.667969 0 10.597657zm0 0"/><path d="m66.660156 158.96875-15.199218-5.949219c-3.859376-1.507812-8.207032.390625-9.71875 4.242188-1.511719 3.851562.390624 8.199219 4.246093 9.707031l15.203125 5.949219c3.808594 1.488281 8.226563-.441407 9.71875-4.242188 1.511719-3.855469-.390625-8.199219-4.25-9.707031zm0 0"/><path d="m159.160156 66.582031c1.492188 3.800781 5.910156 5.730469 9.71875 4.242188 3.855469-1.507813 5.757813-5.855469 4.25-9.707031l-6.132812-15.625c-1.507813-3.855469-5.859375-5.753907-9.71875-4.246094-3.855469 1.511718-5.757813 5.855468-4.246094 9.707031zm0 0"/><path d="m295.09375 70.824219c3.808594 1.488281 8.226562-.441407 9.71875-4.242188l6.132812-15.625c1.507813-3.855469-.390624-8.199219-4.25-9.710937-3.855468-1.503906-8.207031.390625-9.71875 4.242187l-6.128906 15.628907c-1.511718 3.851562.390625 8.195312 4.246094 9.707031zm0 0"/><path d="m359.621094 111.71875c1.917968 0 3.839844-.730469 5.304687-2.195312l31.101563-31.0625c2.929687-2.929688 2.929687-7.671876 0-10.597657-2.929688-2.921875-7.675782-2.921875-10.605469 0l-31.105469 31.066407c-2.929687 2.925781-2.929687 7.667968 0 10.59375 1.464844 1.464843 3.386719 2.195312 5.304688 2.195312zm0 0"/><path d="m422.234375 157.261719c-1.511719-3.855469-5.863281-5.75-9.71875-4.242188l-15.203125 5.949219c-3.855469 1.507812-5.757812 5.851562-4.246094 9.707031 1.492188 3.800781 5.910156 5.730469 9.71875 4.242188l15.203125-5.949219c3.855469-1.507812 5.757813-5.855469 4.246094-9.707031zm0 0"/><path d="m233.359375 77.152344c-31.246094-.265625-61.738281 8.632812-88.121094 25.722656-3.476562 2.253906-4.464843 6.890625-2.210937 10.363281 2.25 3.46875 6.898437 4.457031 10.371094 2.207031 23.574218-15.265624 50.730468-23.316406 78.628906-23.316406.402344 0 .808594 0 1.210937.003906 38.617188.324219 74.871094 15.585938 102.085938 42.984376 27.230469 27.410156 42.226562 63.773437 42.226562 102.390624 0 47.226563-23.113281 91.683594-61.832031 118.925782-12.773438 8.984375-21.125 22.75-23.222656 37.800781h-25.65625c-4.144532 0-7.5 3.355469-7.5 7.492187 0 4.136719 3.355468 7.492188 7.5 7.492188h25.136718v38.414062c0 9.492188-7.734374 17.214844-17.238281 17.214844h-85.492187c-9.503906 0-17.238282-7.722656-17.238282-17.214844v-38.414062h64.832032c4.144531 0 7.5-3.355469 7.5-7.492188 0-4.136718-3.355469-7.492187-7.5-7.492187h-65.363282c-2.070312-15.070313-10.300781-28.761719-22.921874-37.597656-38.898438-27.226563-62.121094-71.757813-62.121094-119.125 0-39.449219 15.828125-76.476563 44.574218-104.261719 2.976563-2.878906 3.054688-7.621094.171876-10.59375-2.878907-2.972656-7.625-3.050781-10.605469-.171875-31.6875 30.632813-49.140625 71.484375-49.140625 115.027344 0 52.246093 25.613281 101.367187 68.511718 131.394531 10.683594 7.476562 17.0625 19.746094 17.0625 32.820312v45.90625c0 15.570313 11.125 28.59375 25.851563 31.558594 8.148437 19.8125 27.3125 32.808594 49.132813 32.808594 21.820312 0 40.984374-12.996094 49.128906-32.808594 14.726562-2.964844 25.851562-15.988281 25.851562-31.558594v-45.886718c0-.007813.003906-.011719.003906-.019532 0-13.035156 6.496094-25.386718 17.382813-33.046874 42.695313-30.042969 68.1875-79.078126 68.1875-131.167969 0-42.597657-16.539063-82.707031-46.574219-112.945313-30.019531-30.21875-70.011718-47.058594-112.613281-47.414062zm-1.367187 419.867187c-13.191407 0-25.03125-6.613281-31.933594-17.191406h63.867187c-6.902343 10.578125-18.742187 17.191406-31.933593 17.191406zm0 0"/></svg>