<svg id="Layer_1" enable-background="new 0 0 100 100" height="512" viewBox="0 0 100 100" width="512" xmlns="http://www.w3.org/2000/svg"><switch><g><g fill="#0e3692"><path d="m42.2 26.9c.2.4.7.7 1.1.7.2 0 .4-.1.7-.2.6-.4.8-1.2.5-1.8l-3.1-5.4c-.4-.6-1.2-.8-1.8-.5-.6.4-.8 1.2-.5 1.8z"/><path d="m50 25.7c.7 0 1.3-.6 1.3-1.3v-6.2c0-.7-.6-1.3-1.3-1.3s-1.3.6-1.3 1.3v6.2c0 .8.6 1.3 1.3 1.3z"/><path d="m56 27.4c.2.1.4.2.7.2.5 0 .9-.2 1.1-.7l3.1-5.4c.4-.6.1-1.4-.5-1.8s-1.4-.1-1.8.5l-3.1 5.4c-.3.6-.1 1.4.5 1.8z"/><path d="m18.8 64.7c0-.7-.6-1.3-1.3-1.3s-1.3.6-1.3 1.3v4.4h-3.6v-2.8c0-7.1 5.8-12.9 12.9-12.9 2.9 0 5.6.9 7.7 2.6.5-.7 1.1-1.4 1.7-2-1.2-.9-2.6-1.7-4.1-2.2 2.6-1.7 4.4-4.7 4.4-8.1 0-5.4-4.4-9.7-9.7-9.7-5.4 0-9.7 4.4-9.7 9.7 0 3.4 1.7 6.4 4.4 8.1-6 2.2-10.3 7.8-10.3 14.5v4.1c0 .7.6 1.3 1.3 1.3h17.5v-2.6h-9.9zm-.5-21.1c0-3.9 3.2-7.1 7.1-7.1s7.1 3.2 7.1 7.1-3.2 7.1-7.1 7.1c-3.9.1-7.1-3.1-7.1-7.1z"/><path d="m79.9 51.8c2.6-1.7 4.4-4.7 4.4-8.1 0-5.4-4.4-9.7-9.7-9.7-5.4 0-9.7 4.4-9.7 9.7 0 3.4 1.7 6.4 4.4 8.1-1.5.5-2.8 1.3-4.1 2.2.6.6 1.2 1.3 1.7 2 2.2-1.6 4.8-2.6 7.7-2.6 7.1 0 12.9 5.8 12.9 12.9v2.8h-3.6v-4.4c0-.7-.6-1.3-1.3-1.3s-1.3.6-1.3 1.3v4.4h-9.9v2.6h17.5c.7 0 1.3-.6 1.3-1.3v-4.1c-.1-6.7-4.4-12.3-10.3-14.5zm-12.4-8.2c0-3.9 3.2-7.1 7.1-7.1s7.1 3.2 7.1 7.1-3.2 7.1-7.1 7.1c-3.9.1-7.1-3.1-7.1-7.1z"/><path d="m55.9 51.2c3.4-2 5.7-5.7 5.7-10 0-6.4-5.2-11.6-11.6-11.6s-11.6 5.2-11.6 11.6c0 4.2 2.3 8 5.7 10-7.4 2.5-12.7 9.4-12.7 17.7v5c0 .7.6 1.3 1.3 1.3h7.4l-2.9-2.6h-3.2v-3.7c0-8.8 7.2-16 16-16s16 7.2 16 16v3.7h-3.2l-2.9 2.6h7.4c.7 0 1.3-.6 1.3-1.3v-5c0-8.2-5.3-15.2-12.7-17.7zm-14.9-9.9c0-4.9 4-9 8.9-9s8.9 4 8.9 9-4 9-8.9 9-8.9-4.1-8.9-9z"/><path d="m56.7 74.6 5.2-4.7c.4-.3.5-1 .4-1.4-.2-.5-.6-.9-1.2-.9l-7-.8-2.9-6.4c-.2-.5-.7-.8-1.3-.8-.5 0-1 .3-1.3.8l-2.9 6.4-7 .8c-.5.1-1 .5-1.2.9-.2.5 0 1.1.4 1.4l5.2 4.7-1.4 6.9c-.1.5.1 1.1.5 1.4s1 .3 1.5.1l6.1-3.5 6.1 3.5c.2.1.4.2.7.2s.6-.1.8-.3c.4-.3.6-.9.5-1.4zm-2.7-.2 1 4.9-4.3-2.5c-.4-.2-.9-.2-1.3 0l-4.4 2.4 1-4.9c.1-.5-.1-.9-.4-1.2l-3.7-3.4 5-.6c.5-.1.9-.3 1.1-.8l2.1-4.6 2.1 4.6c.2.4.6.7 1.1.8l5 .6-3.7 3.4c-.6.3-.7.8-.6 1.3z"/></g></g></switch></svg>