<svg id="Capa_1" enable-background="new 0 0 511.978 511.978" height="512" viewBox="0 0 511.978 511.978" width="512" xmlns="http://www.w3.org/2000/svg" fill="#fff"><g><path d="m18.502 493.339c25.205 25.192 67.566 24.416 91.737-1.804l49.128-52.406 13.04 13.04c15.245 15.234 34.465 25.539 55.58 29.799l40.547 8.189c7.642 1.546 14.63 5.649 19.713 11.566l4.608 6.212c1.962 2.645 4.98 4.043 8.039 4.043 2.07 0 4.159-.641 5.95-1.969 4.436-3.29 5.364-9.554 2.073-13.989l-4.808-6.481c-.125-.169-.256-.334-.391-.495-7.995-9.466-19.081-16.033-31.222-18.49l-40.553-8.19c-17.248-3.48-32.947-11.897-45.398-24.34l-13.494-13.495 104.281-111.265c.766 12.977 6.149 27.91 21.121 42.882 3.842 3.841 10.3 3.841 14.143 0 3.905-3.905 3.905-10.237 0-14.142-13.534-13.534-18.142-28.138-13.695-43.408 3.55-12.188 11.599-20.588 11.647-20.639 3.799-3.847 3.775-10.283-.039-14.097l-8.841-8.84c-3.861-3.86-10.334-3.81-14.146.002l-6.859 6.859c-15.487 15.488-40.733 17.923-58.834 5.514l42.628-42.624c14.251-14.25 37.435-14.255 51.68-.01l41.836 41.836c.267.416.564.814.896 1.193 14.974 17.14 22.765 39.101 21.938 61.838-.005.121-.007.243-.007.364v29.871c0 15.97 6.911 31.135 18.904 41.56l95.543 84.301c4.142 3.655 10.463 3.259 14.114-.882 3.654-4.141 3.26-10.46-.882-14.115l-95.6-84.35c-7.677-6.673-12.08-16.337-12.08-26.514v-29.693c.94-27.091-8.108-53.271-25.528-73.974-.452-.835-1.028-1.614-1.721-2.306l-19.609-19.609c-.011-.012-.021-.024-.032-.036l-1.292-1.291 37.853-40.39c7.474 1.85 15.218 2.829 23.107 2.873h.058c5.496 0 9.968-4.44 9.999-9.943.031-5.523-4.421-10.025-9.943-10.057-42.22-.238-77.298-35.448-77.298-77.719 0-20.761 8.085-40.28 22.767-54.961 17.609-17.61 42.433-25.492 66.491-21.918l-44.204 44.204c-1.875 1.875-2.929 4.419-2.929 7.071s1.054 5.196 2.929 7.071l51.972 51.971c3.906 3.905 10.236 3.905 14.143 0l43.612-43.612c2.343 18.064-1.674 36.703-11.626 52.174-2.988 4.645-1.645 10.833 3 13.82 4.646 2.989 10.833 1.645 13.82-3 16.329-25.385 19.955-57.539 9.7-86.012-1.16-3.221-3.887-5.624-7.228-6.371-3.34-.747-6.831.268-9.252 2.688l-49.099 49.099-37.829-37.829 49.451-49.452c2.403-2.403 3.421-5.862 2.703-9.184s-3.074-6.052-6.255-7.248c-35.831-13.471-76.475-4.685-103.543 22.384-18.459 18.458-28.624 43-28.624 69.103 0 8.082.977 16.013 2.87 23.661l-78.064 73.176-15.018-15.013c-14.053-14.066-37.527-14.072-51.586-.013-6.189 6.19-9.879 14.219-10.563 22.861-11.264-1.628-22.829 2.191-30.878 10.24-9.792 9.792-12.684 24.345-8.673 36.943-6.885 1.325-13.458 4.647-18.778 9.968-11.894 11.894-13.918 31.309-4.802 45.45-5.58 1.694-10.807 4.75-15.158 9.102-9.294 9.294-12.684 22.643-9.406 34.989l-55.974 52.463c-26.242 24.193-27.096 66.548-1.86 91.796zm319.965-274.537-8.179-8.179c-2.532-2.532-5.268-4.785-8.161-6.763l30.324-30.324c5.502 4.49 11.423 8.334 17.672 11.489zm-.161-59.406-35.958 35.958c-3.915-.845-7.945-1.294-12.045-1.294-9.259 0-18.173 2.22-26.15 6.391l62.654-58.731c3.156 6.248 7.003 12.171 11.499 17.676zm-149.57 34.274c6.347-6.348 16.959-6.336 23.3.011l27.615 27.608-23.3 23.3-27.613-27.612c-6.335-6.336-6.337-16.973-.002-23.307zm-41.441 33.1c6.259-6.26 16.691-6.263 22.949 0l31.965 31.961-1.156 1.156c-4.446 4.45-4.444 11.688.003 16.135 2.811 2.811 5.839 5.321 9.031 7.551-.705 1.226-1.567 2.369-2.593 3.397-6.269 6.27-16.787 6.046-23.04-.073l-37.17-37.168c-6.219-6.22-6.214-16.734.011-22.959zm-27.45 46.911c6.361-6.36 16.706-6.372 23.08-.028l.029.028.005.005 27.431 27.431c.009.009.02.017.029.026 6.26 6.379 6.221 16.682-.105 23.008-6.212 6.213-16.899 6.203-23.111-.004l-27.361-27.361c-6.206-6.199-6.196-16.906.003-23.105zm-19.961 54.552c6.311-6.311 16.803-6.315 23.123.005l16.236 16.236c6.377 6.376 6.376 16.752 0 23.128-6.09 6.09-17.024 6.096-23.119 0l-16.24-16.241c-1.19-1.19-2.171-2.544-2.938-4.072-3.2-6.291-1.992-14.127 2.938-19.056zm-65.905 87.957 52.883-49.565 15.12 15.12c2.422 2.422 5.109 4.42 7.961 6.014l-12.717 12.717c-3.905 3.905-3.905 10.237 0 14.142 3.849 3.849 10.292 3.849 14.142 0l22.837-22.838c7.03-1.273 13.756-4.613 19.179-10.036 8.975-8.975 12.267-21.516 9.876-33.105 7.753-.959 15.257-4.408 21.194-10.346 7.323-7.323 10.858-17.043 10.602-26.681 9.876.229 19.585-3.506 26.587-10.508 2.594-2.6 4.746-5.518 6.417-8.677 13.657 4.324 28.623 4.056 42.109-.768l-174.578 186.258c-16.588 17.993-45.639 18.578-62.947 1.279-17.346-17.354-16.684-46.392 1.335-63.006z"/><path d="m53.981 452.446c1.535 3.686 5.222 6.191 9.23 6.18 4.353-.012 8.302-2.936 9.57-7.1 2.636-8.653-7.148-16.07-14.799-11.42-4.138 2.515-5.861 7.875-4.001 12.34z"/><path d="m464.411 169.226c-2.989-4.561-9.354-5.751-13.86-2.76-4.534 3.009-5.794 9.338-2.77 13.86 3.027 4.526 9.337 5.8 13.87 2.77 4.529-3.027 5.782-9.342 2.76-13.87z"/></g></svg>