<svg id="Capa_1" enable-background="new 0 0 512 512" height="512" viewBox="0 0 512 512" width="512" xmlns="http://www.w3.org/2000/svg" fill="#fff"><g><g id="Page-1_15_"><g id="_x30_16---Clipboard-and-Parcel"><path id="Shape_93_" d="m319.478 85.333h-51.2c0-18.851-15.282-34.133-34.133-34.133h-8.533c0-28.277-22.923-51.2-51.2-51.2s-51.2 22.923-51.2 51.2h-8.533c-18.851 0-34.133 15.282-34.133 34.133h-51.2c-14.138 0-25.6 11.462-25.6 25.6v375.467c0 14.138 11.462 25.6 25.6 25.6h290.133c14.138 0 25.6-11.461 25.6-25.6v-13.397c0-4.713-3.821-8.533-8.533-8.533s-8.533 3.82-8.533 8.533v13.397c0 4.713-3.82 8.533-8.533 8.533h-290.136c-4.713 0-8.533-3.82-8.533-8.533v-375.467c0-4.713 3.821-8.533 8.533-8.533h51.2v8.533c0 9.426 7.641 17.067 17.067 17.067h153.6c9.426 0 17.067-7.641 17.067-17.067v-8.533h51.2c4.713 0 8.533 3.821 8.533 8.533v98.901c0 4.713 3.82 8.533 8.533 8.533s8.533-3.821 8.533-8.533v-98.901c.001-14.138-11.461-25.6-25.599-25.6zm-68.267 25.6h-153.6v-25.6c0-9.426 7.641-17.067 17.067-17.067h17.067c4.713 0 8.533-3.821 8.533-8.533v-8.533c0-18.851 15.282-34.133 34.133-34.133s34.133 15.282 34.133 34.133v8.533c0 4.713 3.821 8.533 8.533 8.533h17.067c9.426 0 17.067 7.641 17.067 17.067z"/><path id="Shape_92_" d="m174.411 42.667c-4.713 0-8.533 3.821-8.533 8.533v25.6c0 4.713 3.821 8.533 8.533 8.533s8.533-3.82 8.533-8.533v-25.6c0-4.713-3.82-8.533-8.533-8.533z"/><path id="Shape_91_" d="m276.811 324.267v-153.6c0-14.138-11.461-25.6-25.6-25.6h-153.6c-14.138 0-25.6 11.462-25.6 25.6v153.6c0 14.138 11.462 25.6 25.6 25.6h153.6c14.139 0 25.6-11.462 25.6-25.6zm-76.254-84.907-15.906-14.08c-6.306-4.603-14.911-4.421-21.018.444l-14.822 13.21v-76.8h51.251zm59.187 84.907c0 4.713-3.821 8.533-8.533 8.533h-153.6c-4.713 0-8.533-3.82-8.533-8.533v-153.6c0-4.713 3.821-8.533 8.533-8.533h34.133v76.8c-.019 6.469 3.636 12.387 9.429 15.266 6.017 2.963 13.208 2.16 18.423-2.057l14.814-13.167 15.36 13.611c5.172 3.879 12.091 4.503 17.872 1.612 5.782-2.891 9.434-8.801 9.434-15.265v-76.8h34.133c4.713 0 8.533 3.821 8.533 8.533v153.6z"/><path id="Shape_90_" d="m286.377 467.575c2.332 1.155 4.899 1.757 7.501 1.758 3.787-.016 7.464-1.278 10.462-3.593l47.991-37.769c1.01-.79 1.827-1.8 2.389-2.953l112.53-229.92 22.519-45.986 14.993-30.626c3.993-8.134 4.589-17.522 1.655-26.095s-9.157-15.628-17.296-19.609l-15.36-7.501c-16.936-8.252-37.355-1.254-45.67 15.65l-150.034 306.576c-.554 1.154-.845 2.415-.853 3.695l-.393 61.193c.037 6.469 3.746 12.356 9.566 15.18zm7.501-15.197.299-47.488 36.941 18.082zm49.254-42.522-45.986-22.511 105.045-214.605 45.978 22.511zm112.546-229.939-45.986-22.502 15.01-30.66 45.978 22.502zm-12.228-91.486c4.144-8.448 14.343-11.948 22.801-7.825l15.36 7.501c8.463 4.144 11.965 14.362 7.825 22.827l-11.238 23.04-45.995-22.545z"/><path id="Shape_89_" d="m63.478 469.333h136.533c4.713 0 8.533-3.82 8.533-8.533s-3.821-8.533-8.533-8.533h-136.533c-4.713 0-8.533 3.82-8.533 8.533s3.82 8.533 8.533 8.533z"/><path id="Shape_88_" d="m251.211 452.267h-17.067c-4.713 0-8.533 3.82-8.533 8.533s3.821 8.533 8.533 8.533h17.067c4.713 0 8.533-3.82 8.533-8.533s-3.82-8.533-8.533-8.533z"/><path id="Shape_87_" d="m251.211 375.467h-153.6c-4.713 0-8.533 3.821-8.533 8.533s3.821 8.533 8.533 8.533h153.6c4.713 0 8.533-3.82 8.533-8.533s-3.82-8.533-8.533-8.533z"/><path id="Shape_86_" d="m251.211 409.6h-153.6c-4.713 0-8.533 3.82-8.533 8.533s3.821 8.533 8.533 8.533h153.6c4.713 0 8.533-3.82 8.533-8.533s-3.82-8.533-8.533-8.533z"/><circle id="Oval_6_" cx="63.478" cy="384" r="8.533"/><circle id="Oval_5_" cx="63.478" cy="418.133" r="8.533"/></g></g></g></svg>