<svg enable-background="new 0 0 128 128" height="512" viewBox="0 0 128 128" width="512" xmlns="http://www.w3.org/2000/svg"><g id="Icon"><g id="g2193_1_" transform="translate(-2672.449 -836.66)"><g id="path1803-1-2_1_"><path d="m2768.901 904.659c-.971 0-1.944-.351-2.713-1.062l-64.907-59.946c-1.623-1.499-1.724-4.029-.225-5.652s4.029-1.726 5.652-.225l64.907 59.946c1.623 1.499 1.724 4.029.225 5.652-.788.855-1.861 1.287-2.939 1.287z"/></g><g id="path1805-1-8_1_"><path d="m2703.997 964.608c-1.077 0-2.151-.433-2.939-1.286-1.499-1.623-1.398-4.153.225-5.652l64.907-59.948c1.623-1.497 4.154-1.397 5.652.225 1.499 1.623 1.398 4.153-.225 5.652l-64.907 59.948c-.77.709-1.743 1.061-2.713 1.061z"/></g></g></g></svg>