<?xml version="1.0" encoding="UTF-8" standalone="no"?> <svg xmlns="http://www.w3.org/2000/svg" viewBox="0 0 64 64" fill="#245690"><g id="outline_create" data-name="outline create"><path d="M43,6.5v-1a3.5,3.5,0,0,0-7,0v1a3.5,3.5,0,0,0,7,0Zm-5,0v-1a1.5,1.5,0,0,1,3,0v1a1.5,1.5,0,0,1-3,0Z"/><path d="M12.68,15.5,12,20.88S12,21,12,21h0V31.14A3.86,3.86,0,0,0,15.86,35H21.7a1,1,0,0,0,.3,0,1,1,0,0,0,.3,0h5.84A3.86,3.86,0,0,0,31,33.71,3.86,3.86,0,0,0,33.86,35H39.7a1,1,0,0,0,.3,0,1,1,0,0,0,.3,0h5.84A3.86,3.86,0,0,0,50,31.14V21h0s0-.08,0-.12l-.67-5.38a4,4,0,0,0-4-3.5H34.65A4,4,0,0,0,31,14.4,4,4,0,0,0,27.35,12H16.65A4,4,0,0,0,12.68,15.5ZM14,31.14V22h2V33h-.14A1.86,1.86,0,0,1,14,31.14ZM23.24,33,23,28.94a1,1,0,0,0-2,0L20.76,33H18V27h8v6Zm18,0L41,28.94a1,1,0,0,0-2,0L38.76,33H36V27h8v6ZM48,22v9.14A1.86,1.86,0,0,1,46.14,33H46V22ZM32.66,15.75a2,2,0,0,1,2-1.75h10.7a2,2,0,0,1,2,1.75L47.87,20H46V17H44v8H36V18H34v2H32.13ZM34,22V33h-.14A1.86,1.86,0,0,1,32,31.14V22Zm-4,0v9.14A1.86,1.86,0,0,1,28.14,33H28V22Zm-.66-6.25L29.87,20H28V17H26v8H18V18H16v2H14.13l.53-4.25a2,2,0,0,1,2-1.75h10.7A2,2,0,0,1,29.34,15.75Z"/><path d="M25,6.5v-1a3.5,3.5,0,0,0-7,0v1a3.5,3.5,0,0,0,7,0Zm-5,0v-1a1.5,1.5,0,0,1,3,0v1a1.5,1.5,0,0,1-3,0Z"/><path d="M62,42a3.89,3.89,0,0,0-6.15-3.33L39.09,50H34.45l6.21-5.19a4.26,4.26,0,0,0-5.43-6.56L28.05,44H21.4a1,1,0,0,0-.71.29L18,47H15v2h1l-1.3,1.29,1.42,1.42L21.81,46H28.4a1,1,0,0,0,.62-.22l7.46-6a2.27,2.27,0,0,1,3.17.36,2.23,2.23,0,0,1-.28,3.11L29.26,51.73l1.28,1.54L32.06,52H39.4a1,1,0,0,0,.56-.17L57,40.28a1.93,1.93,0,0,1,2.46.19,1.87,1.87,0,0,1-.14,2.78L39,60H15v2H39.4a1,1,0,0,0,.64-.23l20.55-17A3.9,3.9,0,0,0,62,42Z"/><path d="M3,62h9a1,1,0,0,0,1-1V41a1,1,0,0,0-1-1H3a1,1,0,0,0-1,1V61A1,1,0,0,0,3,62ZM4,42h7V60H4Z"/><path d="M7.5,43A2.5,2.5,0,1,0,10,45.5,2.5,2.5,0,0,0,7.5,43Zm0,3a.5.5,0,1,1,.5-.5A.5.5,0,0,1,7.5,46Z"/></g></svg>