<svg id="Layer_1" enable-background="new 0 0 500 500" viewBox="0 0 500 500" xmlns="http://www.w3.org/2000/svg" fill="#0e3692"><g><path d="m208.021 474.996c-4.236 0-8.471-1.338-12.163-4.027-7.39-5.365-10.338-14.448-7.516-23.13l10.029-30.869c.812-2.499-.068-5.216-2.196-6.761l-26.261-19.08c-7.387-5.371-10.338-14.453-7.516-23.136 2.823-8.688 10.547-14.298 19.678-14.298h32.462c2.628 0 4.939-1.682 5.751-4.181l10.032-30.875c2.822-8.683 10.543-14.299 19.678-14.299 9.134 0 16.855 5.617 19.678 14.305l10.032 30.869c.811 2.499 3.122 4.181 5.751 4.181h32.462c9.131 0 16.855 5.61 19.678 14.298 2.822 8.683-.129 17.765-7.516 23.136l-26.261 19.08c-2.128 1.544-3.009 4.262-2.196 6.755l10.032 30.875c2.819 8.688-.132 17.765-7.519 23.13-7.39 5.376-16.936 5.371-24.326.006l-26.261-19.081c-2.122-1.544-4.985-1.544-7.112 0l-26.258 19.081c-3.694 2.683-7.93 4.021-12.162 4.021zm-25.945-106.66c-4.078 0-5.433 3.198-5.753 4.181-.317.978-1.101 4.364 2.199 6.761l26.261 19.08c7.273 5.285 10.293 14.585 7.516 23.136l-10.029 30.869c-1.262 3.878 1.361 6.154 2.193 6.761.835.606 3.812 2.408 7.113 0l26.261-19.081c7.279-5.274 17.05-5.274 24.323 0l26.264 19.081c3.294 2.408 6.274.606 7.112 0 .832-.607 3.458-2.882 2.196-6.755l-10.032-30.875c-2.776-8.551.243-17.851 7.516-23.136l26.261-19.08c3.3-2.397 2.516-5.783 2.199-6.761-.32-.983-1.675-4.181-5.753-4.181h-32.462c-8.991 0-16.898-5.742-19.678-14.293l-10.032-30.874c-1.259-3.884-4.721-4.187-5.751-4.187s-4.493.303-5.752 4.181l-10.032 30.88c-2.779 8.551-10.687 14.293-19.678 14.293z"/><path d="m402.433 429.988c-3.768 0-7.538-1.196-10.826-3.58l-21.81-15.843c-1.329-.973-3.117-.973-4.441 0l-21.809 15.843c-3.277 2.373-7.85 1.647-10.227-1.625-2.376-3.271-1.652-7.847 1.619-10.226l21.809-15.844c6.484-4.701 15.18-4.701 21.658 0l21.809 15.844c2.005 1.458 3.781.497 4.444 0 .667-.486 2.137-1.865 1.373-4.221l-8.331-25.641c-2.473-7.612.215-15.889 6.692-20.596l21.806-15.844c2.008-1.453 1.63-3.443 1.376-4.226-.255-.784-1.118-2.614-3.595-2.614h-26.956c-8.005 0-15.046-5.114-17.522-12.726l-8.328-25.641c-.766-2.357-2.771-2.608-3.597-2.608s-2.831.257-3.594 2.614l-8.328 25.629c-2.476 7.618-9.517 12.732-17.522 12.732h-26.956c-4.044 0-7.321-3.278-7.321-7.322s3.277-7.321 7.321-7.321h26.956c1.645 0 3.089-1.052 3.595-2.614l8.327-25.629c2.514-7.733 9.389-12.732 17.519-12.732 8.133 0 15.012 4.994 17.525 12.726l8.331 25.641c.506 1.556 1.95 2.608 3.594 2.608h26.956c8.131 0 15.009 4.999 17.519 12.732 2.514 7.738-.114 15.82-6.695 20.602l-21.804 15.843c-1.329.961-1.882 2.659-1.372 4.22l8.327 25.641c2.514 7.728-.111 15.81-6.689 20.591-3.289 2.391-7.061 3.587-10.833 3.587z"/><path d="m97.566 429.988c-3.772 0-7.545-1.196-10.833-3.586-6.577-4.781-9.203-12.863-6.686-20.597l8.324-25.63c.509-1.567-.042-3.266-1.372-4.226l-21.806-15.844c-6.577-4.781-9.205-12.863-6.692-20.602 2.511-7.733 9.389-12.732 17.519-12.732h26.956c1.645 0 3.089-1.052 3.595-2.614l8.327-25.629c2.516-7.738 9.395-12.732 17.525-12.732 8.133 0 15.009 4.999 17.522 12.726l8.327 25.641c.507 1.556 1.951 2.608 3.595 2.608h26.956c4.044 0 7.321 3.277 7.321 7.321s-3.277 7.322-7.321 7.322h-26.956c-8.005 0-15.046-5.114-17.522-12.726l-8.328-25.641c-.764-2.351-2.768-2.608-3.594-2.608-.827 0-2.831.251-3.6 2.614l-8.325 25.629c-2.476 7.618-9.517 12.732-17.522 12.732h-26.955c-2.477 0-3.34 1.83-3.595 2.614-.254.783-.632 2.773 1.373 4.226l21.809 15.844c6.478 4.707 9.165 12.983 6.692 20.602l-8.328 25.629c-.767 2.363.704 3.741 1.37 4.227.672.497 2.445 1.458 4.444 0l21.809-15.844c6.478-4.701 15.174-4.701 21.658 0l21.809 15.844c3.271 2.379 3.995 6.955 1.619 10.226-2.374 3.277-6.95 4.004-10.227 1.625l-21.809-15.843c-1.329-.973-3.118-.973-4.441 0l-21.809 15.843c-3.291 2.385-7.059 3.581-10.829 3.581z"/><path d="m74.275 306.33c-2.828 0-5.522-1.648-6.721-4.41-1.607-3.712-3.105-7.476-4.492-11.291-1.382-3.804.58-8.001 4.381-9.38 3.812-1.378 8.001.584 9.38 4.382 1.286 3.54 2.673 7.029 4.166 10.467 1.607 3.706-.094 8.018-3.806 9.626-.945.412-1.935.606-2.908.606z"/><path d="m59.66 251.221c-3.686 0-6.858-2.774-7.27-6.526-.789-7.213-1.189-14.568-1.189-21.86l.005-1.676c.02-4.026 3.295-7.292 7.322-7.292 4.081.023 7.341 3.312 7.321 7.355l-.006 1.613c0 6.766.372 13.584 1.104 20.27.441 4.015-2.462 7.631-6.48 8.07-.273.035-.542.046-.807.046zm381.304-6.788c-.181 0-.36-.006-.544-.017-4.032-.298-7.064-3.809-6.766-7.842.335-4.559.504-9.181.504-13.739 0-2.729-.06-5.451-.181-8.15-.174-4.039 2.958-7.458 6.996-7.636 4.032-.165 7.458 2.957 7.635 6.995.126 2.917.192 5.846.192 8.792 0 4.912-.184 9.9-.544 14.814-.283 3.848-3.496 6.783-7.292 6.783zm-376.709-60.948c-.589 0-1.186-.069-1.784-.218-3.92-.984-6.306-4.959-5.322-8.883 1.908-7.624 4.299-15.203 7.101-22.529 1.447-3.775 5.674-5.674 9.455-4.221 3.775 1.441 5.665 5.674 4.221 9.449-2.594 6.783-4.807 13.801-6.575 20.859-.832 3.323-3.815 5.543-7.096 5.543zm369.716-6.59c-3.178 0-6.103-2.082-7.03-5.284-2.018-6.984-4.481-13.916-7.318-20.608-1.579-3.718.16-8.019 3.884-9.597 3.721-1.585 8.021.165 9.597 3.889 3.063 7.224 5.719 14.706 7.902 22.243 1.124 3.884-1.112 7.945-4.996 9.072-.681.194-1.367.285-2.039.285zm-341.736-55.28c-1.433 0-2.88-.418-4.15-1.292-3.329-2.294-4.167-6.852-1.873-10.181 4.438-6.441 9.326-12.703 14.522-18.612 2.674-3.037 7.29-3.334 10.332-.663 3.034 2.671 3.332 7.292.661 10.329-4.816 5.479-9.346 11.285-13.458 17.251-1.42 2.064-3.708 3.168-6.034 3.168zm311.58-5.519c-2.239 0-4.447-1.024-5.886-2.957-4.321-5.828-9.048-11.462-14.053-16.759-2.776-2.94-2.645-7.573.295-10.347 2.934-2.78 7.569-2.654 10.35.292 5.399 5.714 10.5 11.799 15.168 18.085 2.407 3.249 1.73 7.836-1.519 10.244-1.311.973-2.84 1.442-4.355 1.442zm-263.775-42.714c-2.301 0-4.569-1.081-5.996-3.112-2.322-3.306-1.527-7.876 1.781-10.198 6.434-4.524 13.189-8.694 20.079-12.4 3.554-1.916 8.001-.583 9.915 2.98 1.916 3.557.584 7.995-2.977 9.912-6.38 3.432-12.638 7.299-18.597 11.485-1.282.904-2.749 1.333-4.205 1.333zm214.3-3.798c-1.37 0-2.754-.383-3.986-1.184-6.112-3.975-12.509-7.618-19.012-10.827-3.627-1.79-5.114-6.183-3.326-9.803 1.79-3.626 6.177-5.125 9.806-3.329 7.018 3.465 13.922 7.395 20.516 11.685 3.389 2.202 4.35 6.738 2.145 10.13-1.405 2.155-3.75 3.328-6.143 3.328zm-152.725-24.743c-3.251 0-6.224-2.185-7.078-5.48-1.021-3.912 1.326-7.91 5.239-8.928 7.589-1.973 15.385-3.511 23.167-4.563 4.016-.555 7.696 2.265 8.239 6.268.544 4.004-2.265 7.693-6.271 8.236-7.204.978-14.419 2.402-21.445 4.232-.619.161-1.24.235-1.851.235zm90.149-1.596c-.526 0-1.058-.057-1.596-.172-7.097-1.578-14.362-2.745-21.585-3.465-4.025-.406-6.961-3.993-6.558-8.014.4-4.021 3.983-6.943 8.011-6.56 7.802.778 15.646 2.041 23.313 3.746 3.946.875 6.435 4.787 5.557 8.733-.759 3.41-3.785 5.732-7.142 5.732z"/><path d="m428.162 300.445c-.894 0-1.804-.166-2.685-.509-3.761-1.487-5.605-5.742-4.121-9.5 1.373-3.478 2.643-7.006 3.807-10.593 1.244-3.843 5.366-5.943 9.223-4.707 3.847 1.253 5.951 5.382 4.705 9.226-1.256 3.873-2.628 7.687-4.115 11.451-1.137 2.876-3.897 4.632-6.814 4.632z"/><path d="m247.814 197.852c-28.297 0-51.318-23.021-51.318-51.316 0-28.301 23.021-51.322 51.318-51.322 28.298 0 51.319 23.021 51.319 51.322.001 28.295-23.021 51.316-51.319 51.316zm0-87.996c-20.224 0-36.677 16.455-36.677 36.68s16.453 36.674 36.677 36.674c20.225 0 36.678-16.449 36.678-36.674s-16.453-36.68-36.678-36.68z"/><path d="m343.804 281.13c-4.044 0-7.321-3.277-7.321-7.321v-8.861c0-24.657-20.059-44.715-44.716-44.715h-87.907c-24.655 0-44.713 20.059-44.713 44.715v8.861c0 4.044-3.277 7.321-7.321 7.321s-7.322-3.277-7.322-7.321v-8.861c0-32.728 26.628-59.358 59.356-59.358h87.907c32.731 0 59.358 26.63 59.358 59.358v8.861c0 4.043-3.277 7.321-7.321 7.321z"/><path d="m291.813 296.298c-4.044 0-7.321-3.277-7.321-7.321v-31.652c0-4.044 3.277-7.321 7.321-7.321s7.321 3.277 7.321 7.321v31.652c0 4.044-3.277 7.321-7.321 7.321z"/><path d="m203.817 296.298c-4.044 0-7.321-3.277-7.321-7.321v-31.652c0-4.044 3.277-7.321 7.321-7.321s7.321 3.277 7.321 7.321v31.652c-.001 4.044-3.278 7.321-7.321 7.321z"/></g></svg>