<?xml version="1.0" encoding="UTF-8"?>
<svg xmlns="http://www.w3.org/2000/svg" id="Line_Expand" data-name="Line Expand" viewBox="0 0 64 64" width="512" height="512" fill="#fff"><path d="M29,23.824a1,1,0,0,0,1-1v-1a1,1,0,1,0-2,0v1A1,1,0,0,0,29,23.824Z"/><path d="M17,20.824a1,1,0,0,0-1,1v1a1,1,0,0,0,2,0v-1A1,1,0,0,0,17,20.824Z"/><path d="M23,32.322A3.817,3.817,0,0,0,25.707,31.2a1,1,0,0,0-1.414-1.414,1.831,1.831,0,0,1-2.586,0A1,1,0,0,0,20.293,31.2,3.817,3.817,0,0,0,23,32.322Z"/><path d="M63.864,47.32,60.5,41.554v-4.73a1,1,0,0,0-1-1h-14a1,1,0,0,0-1,1v4.73l-1.7,2.918a13.046,13.046,0,0,0-7.66-4.3l-3.761-.627L28,37.289V36.267a15.105,15.105,0,0,0,6.733-9.943H35.5a3.5,3.5,0,0,0,3.5-3.5v-15a5.006,5.006,0,0,0-5-5H20a13.015,13.015,0,0,0-13,13v7a3.5,3.5,0,0,0,3.5,3.5h.767A15.1,15.1,0,0,0,18,36.266v1.023L14.623,39.54l-3.76.627A12.958,12.958,0,0,0,0,52.99v8.834a1,1,0,0,0,1,1H61.5a1,1,0,0,0,1-1v-9H63a1,1,0,0,0,1-1v-4A1,1,0,0,0,63.864,47.32Zm-2.6-.5H56.824l-.778-4h2.879Zm-14.759-9h12v3h-12Zm8.5,11v2H50v-2Zm-4.787-2,.778-4h3.018l.778,4Zm-4.138-4h2.879l-.778,4H43.741Zm-3.075,6h5v2H43Zm-1.28-2.5-.584,1a1,1,0,0,0-.136.5v4a1,1,0,0,0,1,1h.5v8h-3v-7a1,1,0,0,0-2,0v7H28.869l6.963-10.445a1,1,0,0,0-.125-1.261l-2.185-2.185L36.6,44.624a1,1,0,0,0-.045-1.632l-1.051-.7A10.857,10.857,0,0,1,41.72,46.319Zm-7.451-2.447L31.4,46.024a1,1,0,0,0-.107,1.507l2.42,2.42L26.465,60.824H24.736a31.206,31.206,0,0,0,3.743-20.812ZM19.269,42a7.427,7.427,0,0,0,1.765,1.84L19.1,45A29.3,29.3,0,0,1,19.269,42Zm6.885,9.766L25.549,48.5l.823-1.482.451.27A29.46,29.46,0,0,1,26.154,51.764Zm-2.242-4.44H22.088l-.744-1.34L23,44.99l1.656.994Zm1.054-3.486a7.406,7.406,0,0,0,1.753-1.825,29.48,29.48,0,0,1,.174,2.981ZM26,37.824a5.443,5.443,0,0,1-3,4.88,5.443,5.443,0,0,1-3-4.88v-.546a8.515,8.515,0,0,0,6,0Zm-6.372,9.19.823,1.482-.607,3.278a29.411,29.411,0,0,1-.675-4.485Zm2.7,2.31h1.336l1.216,6.568A29.355,29.355,0,0,1,23,59.831a29.285,29.285,0,0,1-1.884-3.938Zm13.168-25h-.527c.014-.264.027-.529.027-.8v-2.2h.5a1.5,1.5,0,0,1,0,3ZM37,19.675a3.464,3.464,0,0,0-1.5-.351H35V17.489a8.639,8.639,0,0,0,2-1.78ZM10.5,24.324a1.5,1.5,0,1,1,0-3H11v2.2c0,.267.013.532.027.8Zm.555-5H10.5a3.464,3.464,0,0,0-1.5.351V15.824a11.013,11.013,0,0,1,11-11H34a3,3,0,0,1,3,3v2.4a6.6,6.6,0,0,1-6.6,6.6A12.26,12.26,0,0,1,20.781,12.2a1,1,0,0,0-1.311-.222L13.35,15.8A4.956,4.956,0,0,0,11.055,19.324ZM13,23.528V20.041A2.983,2.983,0,0,1,14.41,17.5L19.8,14.129a14.245,14.245,0,0,0,10.605,4.7,8.576,8.576,0,0,0,2.6-.4v5.1a13.1,13.1,0,0,1-6.738,11.45,6.82,6.82,0,0,1-6.525,0A13.106,13.106,0,0,1,13,23.528Zm8.264,37.3H19.535L12.287,49.951l2.42-2.42a1,1,0,0,0-.107-1.507l-2.869-2.152,5.79-3.86A31.206,31.206,0,0,0,21.264,60.824ZM2,52.99a10.954,10.954,0,0,1,8.505-10.7l-1.06.706A1,1,0,0,0,9.4,44.624l3.078,2.309-2.185,2.185a1,1,0,0,0-.125,1.261l6.963,10.445H8.5v-7a1,1,0,0,0-2,0v7H2Zm52,7.834H51v-3h3Zm6.5,0H56v-4a1,1,0,0,0-1-1H50a1,1,0,0,0-1,1v4H44.5v-8h16Zm1.5-10H57v-2h5Z"/></svg>
